<?xml version="1.0" standalone="no"?>
<!DOCTYPE svg PUBLIC "-//W3C//DTD SVG 20010904//EN"
 "http://www.w3.org/TR/2001/REC-SVG-20010904/DTD/svg10.dtd">
<svg version="1.0" xmlns="http://www.w3.org/2000/svg"
 width="512.000000pt" height="512.000000pt" viewBox="0 0 512.000000 512.000000"
 preserveAspectRatio="xMidYMid meet">
<metadata>
Created by potrace 1.14, written by Peter Selinger 2001-2017
</metadata>
<g transform="translate(0.000000,512.000000) scale(0.100000,-0.100000)"
fill="#000000" stroke="none">
<path d="M1470 4679 c-88 -8 -143 -24 -220 -65 -130 -68 -216 -175 -285 -351
-36 -92 -43 -103 -84 -129 -95 -60 -184 -170 -221 -276 -11 -31 -31 -109 -45
-175 -35 -163 -44 -193 -57 -193 -12 0 -130 -59 -138 -69 -3 -3 -25 -22 -50
-42 -25 -21 -59 -57 -75 -80 -17 -24 -32 -46 -35 -49 -7 -6 -56 -118 -64 -145
-3 -11 -8 -38 -12 -60 -9 -56 -8 -2158 1 -2231 14 -113 65 -220 147 -306 86
-90 178 -142 296 -169 64 -14 3796 -15 3869 0 67 13 173 61 226 103 102 79
164 169 203 296 l24 77 -2 1130 -3 1130 -23 62 c-31 81 -92 175 -150 230 -79
74 -118 93 -562 272 -96 38 -427 172 -735 296 -541 219 -904 366 -1505 608
-336 135 -381 147 -500 136z"/>
</g>
</svg>
